<?xml version="1.0" encoding="utf-8"?>
<!-- Generator: Adobe Illustrator 22.0.1, SVG Export Plug-In . SVG Version: 6.00 Build 0)  -->
<svg version="1.1" id="CAH_logo" xmlns="http://www.w3.org/2000/svg" xmlns:xlink="http://www.w3.org/1999/xlink" x="0px" y="0px"
	 viewBox="0 0 2132.2 673.1" style="enable-background:new 0 0 2132.2 673.1;" xml:space="preserve">
<style type="text/css">
	.st0{fill:#E41F35;}
	.st1{fill:#FFFFFF;}
	.st2{fill:#FFFFFF;stroke:#FFFFFF;stroke-width:5;stroke-miterlimit:10;}
	.st3{fill:#333333;}
	.st4{fill:#333333;stroke:#333333;stroke-width:5;stroke-miterlimit:10;}
</style>
<g id="CAH_logo_TM_black">
	<g id="TM">
		<path class="st3" d="M2057.7,465.6h-14.7v-4.8h35.8v4.8H2064v39.2h-6.3V465.6z"/>
		<path class="st3" d="M2124.9,485.4c-0.4-6.1-0.8-13.5-0.7-19h-0.2c-1.6,5.2-3.7,10.7-6.1,16.7l-8.5,21.4h-4.7l-7.8-21
			c-2.3-6.2-4.2-11.9-5.6-17.1h-0.1c-0.1,5.5-0.5,12.9-0.9,19.5l-1.3,18.9h-6l3.4-44h8l8.3,21.3c2,5.4,3.7,10.3,4.9,14.8h0.2
			c1.2-4.4,2.9-9.3,5.1-14.8l8.6-21.3h8l3,44h-6.1L2124.9,485.4z"/>
	</g>
	<g id="CardinalHealth_1_">
		<path class="st3" d="M1012.8,471.7h34.7v32.8h-34.7V471.7z M1013.3,530.8h33.7v139.4h-33.7V530.8z"/>
		<path class="st3" d="M1359,467.3h33.8v203H1359V467.3z"/>
		<path class="st3" d="M1429.5,467.3h17V554h74.4v-86.8h17v203h-17V568.9h-74.4v101.3h-17V467.3z"/>
		<path class="st3" d="M1586.6,605.9c0,51.6,33.8,52.2,40,52.2c9.1,0,22.2-4.5,30.2-11.5l0.9,17.7c-6.7,3.7-15.9,8-32.7,8
			c-54.8,0-56.6-57.6-56.6-71.6c0-47.6,18-71.6,49.2-71.6c34.5,0,49.5,27.4,49.5,76.9H1586.6z M1648.9,591c0-30-12.2-47.4-31-47.4
			c-21.3,0-31.3,20.1-31.3,47.4H1648.9z"/>
		<path class="st3" d="M1819.3,467.3h16.5v203h-16.5V467.3z"/>
		<path class="st3" d="M1895.5,498.2v32.5h28.6v13.7h-28.6v92c0,11.2,1.4,21.8,16.1,21.8c6.6,0,9.9-1.5,12.5-2.2v14.1
			c-1.6,0.8-6,2-16.1,2c-24.1,0-29.1-15.8-29.1-31.5v-96.2h-21v-13.7h21v-27.9L1895.5,498.2z"/>
		<path class="st3" d="M647.9,539.1c9.5-4.4,22.6-10.3,42.1-10.3c41.9,0,55.7,20.6,55.7,52.6v64.4c0,10,1.1,19.1,1.8,24.5h-30.3
			c-1.7-5.4-1.9-12-1.9-15.8h-0.5c-4.5,4.9-16.5,18.1-38.8,18.1c-24.6,0-42.1-14.9-42.1-40.8c0-37.7,33.4-47.4,67.4-47.4h12.9v-5.2
			c0-13.8-6.8-26.4-26-26.4c-16.8,0-31.8,8-38.3,13.5L647.9,539.1z M714.1,602.1h-12.3c-16,0-36.6,4.8-36.6,26.2
			c0,12.7,8.4,21.4,21.5,21.4c18,0,27.4-14.6,27.4-32.5V602.1z"/>
		<path class="st3" d="M1228.1,539.1c9.4-4.4,22.7-10.3,42.1-10.3c41.9,0,55.4,20.6,55.4,52.6v64.4c0,10,1.2,19.1,2,24.5h-30.2
			c-1.7-5.4-1.9-12-1.9-15.8h-0.6c-4.5,4.9-16.5,18.1-38.8,18.1c-24.6,0-42.2-14.9-42.2-40.8c0-37.7,33.6-47.4,67.4-47.4h13v-5.2
			c0-13.8-6.8-26.4-26.1-26.4c-16.8,0-31.7,8-38.2,13.5L1228.1,539.1z M1294.4,602.1h-12.3c-16,0-36.4,4.8-36.4,26.2
			c0,12.7,8.4,21.4,21.3,21.4c18.1,0,27.5-14.6,27.5-32.5V602.1z"/>
		<path class="st3" d="M778.8,554c0-8.8-0.3-16.8-1.1-23.2H808c0.2,8.5,1,10.8,1,19.3h0.5c2.6-6,9.1-21.4,35.7-21.4
			c2.1,0,3.8,0.4,5.7,0.7v31.2c-1.4-0.3-4.9-1.1-9.5-1.1c-13.8,0-29,8.5-29,34.5v76.2h-33.6V554z"/>
		<path class="st3" d="M979.2,467.3v179.2c0,10,0.3,18.7,1.2,23.7h-31.6c-0.5-3.9-1-11.2-1-18H947c-1.9,3.9-10.8,20.3-37.3,20.3
			c-34.8,0-49.1-33.1-49.1-71.8c0-45.5,17.1-72,51.8-72c22.6,0,30.6,13.5,32.6,16.3h0.7v-77.8H979.2z M919,647.9
			c19.8,0,26.7-21.4,26.7-47.7c0-27-7.7-46.7-26.1-46.7c-18.8,0-25.4,18-25.4,45.9C894.2,631.7,899.5,647.9,919,647.9z"/>
		<path class="st3" d="M615.7,666.4c-3.6,1.4-14.3,6.7-41,6.7c-57.6,0-87.2-42-87.2-97.3c0-55.3,29.6-97.3,86.1-97.3
			c24.7,0,37.8,5.4,42.1,7l-1.9,31.5c-3.3-2-13.6-9.8-35.9-9.8c-28.7,0-53.4,19.7-53.4,68.6c0,49,24.7,68.6,53.4,68.6
			c16.8,0,28-4.1,35.8-9.7L615.7,666.4z"/>
		<path class="st3" d="M1081.2,554c0-8.8-0.3-16.8-1.1-23.2h31.6c0.2,4.4,0.9,14.1,0.9,17.6h0.5c2.9-4.2,11.7-19.7,36.6-19.7
			c29.1,0,42,18.6,42,45.9v95.5h-33.7V580c0-17.1-10.2-23.7-21.6-23.7c-11.2,0-21.6,6.2-21.6,23.7v90.2h-33.7V554z"/>
		<path class="st3" d="M1947,467.3h16.6v76.3h0.3c3.9-4.9,12.5-14.6,33.7-14.6c26.2,0,40.6,21.4,40.6,40.8v100.5h-16.8v-96.6
			c0-18.6-10.8-31-28.6-31c-17.8,0-29.3,11.9-29.3,31v96.6H1947V467.3z"/>
		<path class="st3" d="M1766,575c0-19.2-6.9-31.4-30.4-31.4c-18.9,0-32.1,13.1-33.8,14.6l-2.5-16.9c7.9-4.9,19.5-12.3,37.7-12.3
			c39,0,45.7,28.3,45.7,43v67.2c0,10.5,0.7,20.8,1.6,31.1h-16.1l-0.9-16.8h-0.5c-3.6,4.7-11.2,18.8-37.8,18.8
			c-26.2,0-41-16.4-41-41.1c0-35.5,30.2-44.7,66.1-44.7h11.9V575z M1752.7,600.1c-29.3,0-47.3,8.7-47.3,30.6
			c0,13.9,8.7,26.8,27.1,26.8c7.4,0,33.4-3,33.4-41v-16.4H1752.7z"/>
	</g>
	<path id="wings_1_" class="st0" d="M1136.9,138.8l-1.6-1.3c-213.7,8.7-414.1,75.5-548.9,158.6c-5.7-8.8-12-16.9-19.1-25.5
		c121-74.7,289.8-137,433.5-155.8l-1.9-1.1C845,129.2,694.5,175.9,587.4,233.9c-4.3-7.6-9.5-15.4-15.5-22.8
		c93.6-53.9,214.1-97.3,329.2-118.3l-1.6-1.2C765.2,111.9,643.8,149.4,559.9,197c-6.1-6.8-12.7-13.1-20-19.7
		c8.8-5.3,17.9-10.4,27.5-15.5c4.2,4.3,8.2,8.6,12.1,13.1l4.7-4.5c-2.6-4.5-5.5-8.7-8.5-12.9c69-35,154.5-62.9,221.1-75.9l-1.8-1.1
		c-68.1,12.1-158.7,32.7-228,65.9C510,78.7,394.4,32.6,226.3,0l-1.5,1c152,34.5,263.4,86.2,331.9,150.3c-10,5.1-19.4,10.5-28.2,16.2
		C447.9,101.2,305.2,41.7,117.2,14l-1.6,0.9C281.4,45,420.1,104.8,513.4,178.1c-9.3,7.1-17.5,14.3-24.5,22.2
		C385.3,126.9,221.1,65.1,1.5,36.7l-1.5,1c181.6,29,370.8,93,499.2,200.9c-16.9,14.5-30.6,29.7-40.2,45.2l5.4,5.7
		c13.9-13.5,29.9-26.7,47.6-39.7c6.7,5.7,13.2,11.9,19.5,18.1c-44.2,30.3-75.8,62.9-90,94.4l5.8,4.8c24.5-28.3,58.8-56.5,99.4-83.5
		c7.4,8.1,14.4,15.9,21.1,24.3C485,362.6,430.3,422.8,418.1,478.2l6.4,4.4c34.9-59,91-110.4,158.1-155.6
		c10.4,14.6,20,29.6,28.5,45.6l5.9-3.8c-3-17.2-9.2-34.5-18.3-51.7C767.3,210.1,997.1,147.4,1136.9,138.8z M497.9,206.7
		c8.1-6.6,16.9-13.2,26.6-19.8c7.3,6.2,14.3,12.2,20.9,18.4c-9.4,5.8-18.3,11.5-26.6,17.8C512.2,217.4,505.2,212.2,497.9,206.7z
		 M532.8,235.4c8.4-5.9,17.2-11.2,26.1-16.8c6.7,6.9,13,13.6,18.9,20.7c-8.8,4.7-17.3,10.1-25.4,15
		C546.3,247.9,539.8,241.4,532.8,235.4z"/>
</g>
</svg>
